HIERARCHY
ROOT Hips
{
	OFFSET 0.00000 0.00000 0.00000
	CHANNELS 6 Xposition Yposition Zposition Zrotation Yrotation Xrotation 
	JOINT LHipJoint
	{
		OFFSET 0 0 0
		CHANNELS 3 Zrotation Yrotation Xrotation
		JOINT LeftUpLeg
		{
			OFFSET 1.28858 -1.83292 1.03970
			CHANNELS 3 Zrotation Yrotation Xrotation
			JOINT LeftLeg
			{
				OFFSET 2.47846 -6.80952 0.00000
				CHANNELS 3 Zrotation Yrotation Xrotation
				JOINT LeftFoot
				{
					OFFSET 2.75274 -7.56311 0.00000
					CHANNELS 3 Zrotation Yrotation Xrotation
					JOINT LeftToeBase
					{
						OFFSET 0.12848 -0.35301 1.68223
						CHANNELS 3 Zrotation Yrotation Xrotation
						End Site
						{
							OFFSET 0.00000 -0.00000 0.87311
						}
					}
				}
			}
		}
	}
	JOINT RHipJoint
	{
		OFFSET 0 0 0
		CHANNELS 3 Zrotation Yrotation Xrotation
		JOINT RightUpLeg
		{
			OFFSET -1.31183 -1.83292 1.03970
			CHANNELS 3 Zrotation Yrotation Xrotation
			JOINT RightLeg
			{
				OFFSET -2.44740 -6.72417 0.00000
				CHANNELS 3 Zrotation Yrotation Xrotation
				JOINT RightFoot
				{
					OFFSET -2.67343 -7.34519 0.00000
					CHANNELS 3 Zrotation Yrotation Xrotation
					JOINT RightToeBase
					{
						OFFSET -0.16914 -0.46471 1.77626
						CHANNELS 3 Zrotation Yrotation Xrotation
						End Site
						{
							OFFSET -0.00000 -0.00000 0.92777
						}
					}
				}
			}
		}
	}
	JOINT LowerBack
	{
		OFFSET 0 0 0
		CHANNELS 3 Zrotation Yrotation Xrotation
		JOINT Spine
		{
			OFFSET 0.01249 2.14252 0.03842
			CHANNELS 3 Zrotation Yrotation Xrotation
			JOINT Spine1
			{
				OFFSET -0.02957 2.14199 -0.03751
				CHANNELS 3 Zrotation Yrotation Xrotation
				JOINT Neck
				{
					OFFSET 0 0 0
					CHANNELS 3 Zrotation Yrotation Xrotation
					JOINT Neck1
					{
						OFFSET -0.01678 1.65709 -0.05476
						CHANNELS 3 Zrotation Yrotation Xrotation
						JOINT Head
						{
							OFFSET 0.07912 1.58331 -0.11843
							CHANNELS 3 Zrotation Yrotation Xrotation
							End Site
							{
								OFFSET 0.03298 1.73940 -0.04271
							}
						}
					}
				}
				JOINT LeftShoulder
				{
					OFFSET 0 0 0
					CHANNELS 3 Zrotation Yrotation Xrotation
					JOINT LeftArm
					{
						OFFSET 3.39556 1.16496 0.08673
						CHANNELS 3 Zrotation Yrotation Xrotation
						JOINT LeftForeArm
						{
							OFFSET 5.23910 -0.00000 -0.00000
							CHANNELS 3 Zrotation Yrotation Xrotation
							JOINT LeftHand
							{
								OFFSET 3.31467 -0.00000 0.00000
								CHANNELS 3 Zrotation Yrotation Xrotation
								JOINT LeftFingerBase
								{
									OFFSET 0 0 0
									CHANNELS 3 Zrotation Yrotation Xrotation
									JOINT LeftHandIndex1
									{
										OFFSET 0.96590 -0.00000 0.00000
										CHANNELS 3 Zrotation Yrotation Xrotation
										End Site
										{
											OFFSET 0.77873 -0.00000 0.00000
										}
									}
								}
								JOINT LThumb
								{
									OFFSET 0 0 0
									CHANNELS 3 Zrotation Yrotation Xrotation
									End Site
									{
										OFFSET 0.79062 -0.00000 0.79062
									}
								}
							}
						}
					}
				}
				JOINT RightShoulder
				{
					OFFSET 0 0 0
					CHANNELS 3 Zrotation Yrotation Xrotation
					JOINT RightArm
					{
						OFFSET -3.27193 1.31331 0.33940
						CHANNELS 3 Zrotation Yrotation Xrotation
						JOINT RightForeArm
						{
							OFFSET -5.30252 -0.00000 0.00000
							CHANNELS 3 Zrotation Yrotation Xrotation
							JOINT RightHand
							{
								OFFSET -3.67875 -0.00000 0.00000
								CHANNELS 3 Zrotation Yrotation Xrotation
								JOINT RightFingerBase
								{
									OFFSET 0 0 0
									CHANNELS 3 Zrotation Yrotation Xrotation
									JOINT RightHandIndex1
									{
										OFFSET -0.59481 -0.00000 0.00000
										CHANNELS 3 Zrotation Yrotation Xrotation
										End Site
										{
											OFFSET -0.47955 -0.00000 0.00000
										}
									}
								}
								JOINT RThumb
								{
									OFFSET 0 0 0
									CHANNELS 3 Zrotation Yrotation Xrotation
									End Site
									{
										OFFSET -0.48687 -0.00000 0.48687
									}
								}
							}
						}
					}
				}
			}
		}
	}
}
MOTION
Frames: 10
Frame Time: .0083333
8.4324 18.1682 -14.6376 -180.8320 -14.5841 -167.0550 0.0000 0.0000 0.0000 -24.4592 6.0442 -26.8149 0.5559 4.7758 13.2701 1.1689 -14.0569 29.8009 3.3057 11.1742 32.8698 0.0000 0.0000 0.0000 18.8759 -1.8965 -36.1945 -8.5177 -16.4872 54.4068 -0.4401 -11.3342 13.2978 -0.0720 -1.7314 4.7639 4.1274 5.2690 4.1085 -4.3421 6.9580 3.4976 -6.9133 3.5705 2.3856 4.6932 20.7712 5.1511 -9.1485 27.7835 -4.9448 -3.6883 14.0616 -0.3975 -0.0000 0.0000 0.0000 -74.4799 -6.0741 64.2444 55.3698 -54.9443 -30.5185 -0.0000 0.0000 -13.6589 25.9149 -18.0121 -8.5447 -7.1250 0.0000 -0.0000 -1.3920 10.1093 1.1264 -0.0000 0.0000 0.0000 74.2215 -9.2388 40.4543 -26.0250 37.2334 -8.9028 0.0000 -0.0000 -3.1307 -0.7636 -28.3804 0.3630 7.1250 -0.0000 -0.0000 31.6754 -55.3919 -8.7158
8.4271 18.1824 -14.5569 -181.3080 -15.2186 -167.3290 0.0000 0.0000 0.0000 -24.7280 6.4874 -25.8307 0.5758 4.8592 13.5075 1.1855 -14.6072 30.4208 3.4676 11.4160 33.6961 0.0000 0.0000 0.0000 18.3308 -2.5693 -36.2652 -8.6160 -16.5542 54.7524 -0.4206 -11.3047 13.0828 -0.0892 -1.9260 5.3011 3.9226 5.1269 4.0284 -4.4957 6.7448 3.6838 -6.9464 3.4623 2.5874 4.7388 20.7834 5.3165 -9.1383 27.8031 -5.0328 -3.7185 14.0740 -0.4474 0.0000 -0.0000 0.0000 -74.8997 -6.4826 64.1468 54.2342 -54.5667 -29.5910 -0.0000 0.0000 -13.5149 26.0048 -18.0844 -8.6110 -7.1250 0.0000 -0.0000 -1.3405 10.0162 1.0872 0.0000 -0.0000 0.0000 74.4228 -9.9351 40.1880 -25.9744 37.1834 -8.8722 0.0000 -0.0000 -2.6946 -1.3420 -28.2873 0.6360 7.1250 -0.0000 -0.0000 31.0574 -55.4252 -8.5461
8.4199 18.1866 -14.4616 -181.6220 -15.6581 -167.4620 0.0000 0.0000 0.0000 -24.8378 6.6507 -24.9518 0.5767 4.8632 13.5188 1.1821 -14.9256 30.6972 3.5354 11.5150 34.0371 0.0000 0.0000 0.0000 17.9057 -2.9109 -36.4981 -8.6740 -16.5933 54.9556 -0.4318 -11.1666 13.1478 -0.0754 -1.7713 4.8741 3.9197 5.0782 3.9367 -4.6752 6.6684 3.7935 -7.1219 3.4294 2.7655 4.7955 20.7938 5.4749 -8.9591 27.8282 -5.0701 -3.6988 14.0829 -0.5038 -0.0000 0.0000 0.0000 -75.3122 -7.0380 64.2177 52.9318 -54.1116 -28.5328 -0.0000 0.0000 -13.4325 26.0613 -18.1672 -8.6699 -7.1250 0.0000 -0.0000 -1.3119 9.9172 1.0666 -0.0000 0.0000 0.0000 74.7629 -10.6737 39.6523 -25.9782 37.1872 -8.8745 0.0000 -0.0000 -2.2833 -1.8840 -28.3359 0.8945 7.1250 -0.0000 -0.0000 30.5796 -55.5725 -8.5091
8.4802 18.1525 -14.2753 -181.1710 -14.7879 -167.1120 0.0000 0.0000 0.0000 -23.3239 4.1359 -24.2725 0.5934 4.9316 13.7137 0.5984 -14.9850 26.6324 2.9665 10.6406 31.0771 0.0000 0.0000 0.0000 18.2105 -0.0537 -37.4472 -8.7845 -16.6670 55.3418 -0.3473 -12.4615 12.8025 -0.0562 -1.5292 4.2063 3.8234 5.4818 4.6361 -4.7773 7.2230 3.3166 -7.2657 3.6809 1.9650 4.8152 20.7878 5.5379 -8.7538 27.8282 -5.0640 -3.6535 14.0769 -0.5412 -0.0000 0.0000 0.0000 -75.5671 -7.4930 64.4426 52.0115 -53.7752 -27.7888 -0.0000 0.0000 -13.5313 26.0156 -18.1263 -8.6341 -7.1250 0.0000 -0.0000 -1.3376 9.9690 1.0862 -0.0000 0.0000 0.0000 75.1297 -11.4613 39.0282 -25.9764 37.1854 -8.8734 0.0000 -0.0000 -2.0814 -2.3218 -28.3758 1.1039 7.1250 -0.0000 -0.0000 30.1928 -55.6928 -8.4777
8.4162 18.1700 -14.2484 -181.9200 -16.3540 -167.6380 0.0000 0.0000 0.0000 -24.0424 4.5170 -22.5310 0.6096 4.9974 13.9011 0.7232 -15.5123 28.1418 3.3793 11.2851 33.2477 0.0000 0.0000 0.0000 17.3651 -2.8665 -37.0913 -8.8036 -16.6796 55.4082 -0.4372 -10.9439 13.1232 -0.0326 -1.1655 3.2044 4.0833 5.0411 3.8331 -4.9330 6.6115 3.8999 -7.4748 3.4142 2.9814 4.8131 20.8387 5.5865 -8.8025 27.8945 -5.0945 -3.6726 14.1129 -0.5473 0.0000 -0.0000 0.0000 -75.8050 -7.7127 64.4632 51.4681 -53.5707 -27.3510 -0.0000 0.0000 -13.6263 26.0170 -18.4219 -8.7685 -7.1250 0.0000 -0.0000 -1.3664 9.6477 1.1184 0.0000 -0.0000 0.0000 75.2601 -12.0795 38.7082 -25.8702 37.0803 -8.8093 0.0000 -0.0000 -2.1792 -2.7965 -28.5797 1.3386 7.1250 -0.0000 -0.0000 29.8941 -55.9624 -8.5846
8.4278 18.1663 -14.1225 -182.1490 -16.4574 -167.5520 0.0000 0.0000 0.0000 -23.5238 2.5304 -21.1450 0.6296 5.0771 14.1286 0.2669 -16.0753 25.2208 3.0111 10.7131 31.3182 0.0000 0.0000 0.0000 17.0305 -2.3128 -37.5358 -8.8681 -16.7221 55.6330 -0.4135 -11.2884 13.0020 -0.0381 -1.2601 3.4649 3.8412 5.0455 3.8224 -5.0061 6.6041 3.9417 -7.4133 3.4022 3.0097 4.5926 20.9191 5.5789 -8.8040 27.9805 -5.2283 -3.6594 14.1598 -0.6141 0.0000 -0.0000 0.0000 -76.2254 -8.1379 64.4002 50.5661 -53.2213 -26.6269 -0.0000 0.0000 -13.4799 26.0222 -18.8150 -8.9480 -7.1250 0.0000 -0.0000 -1.4033 9.2201 1.1606 0.0000 -0.0000 0.0000 75.3841 -12.6001 38.1061 -25.8309 37.0412 -8.7856 0.0000 -0.0000 -1.9779 -3.1850 -28.7673 1.5340 7.1250 -0.0000 -0.0000 29.6650 -56.2020 -8.6880
8.4273 18.1680 -14.0040 -182.0490 -16.7200 -167.6500 0.0000 0.0000 0.0000 -22.8798 1.0682 -19.6184 0.6146 5.0175 13.9584 0.0179 -16.2158 23.1720 2.7873 10.3426 30.0933 0.0000 0.0000 0.0000 17.0312 -2.0474 -37.8545 -8.8890 -16.7358 55.7056 -0.4100 -11.4735 13.0372 -0.0282 -1.0836 2.9789 4.1674 5.0743 3.8667 -5.0744 6.6526 3.9445 -7.6737 3.4406 3.0463 4.4176 20.9223 5.6178 -8.5436 27.9775 -5.2695 -3.5831 14.1531 -0.6987 -0.0000 0.0000 0.0000 -76.5262 -8.5595 64.6539 49.4980 -52.7910 -25.7738 -0.0000 0.0000 -13.3580 26.0517 -18.9238 -9.0086 -7.1250 0.0000 -0.0000 -1.3955 9.0972 1.1576 -0.0000 0.0000 0.0000 75.8313 -13.4011 37.1104 -25.8945 37.1043 -8.8239 0.0000 -0.0000 -1.9524 -3.4811 -28.9595 1.6871 7.1250 -0.0000 -0.0000 29.5281 -56.4278 -8.8092
8.4256 18.1747 -13.8889 -181.9940 -17.0958 -167.8110 0.0000 0.0000 0.0000 -22.3533 -0.2521 -18.2885 0.6292 5.0755 14.1240 -0.1288 -16.2159 21.7078 2.6702 10.1410 29.4344 0.0000 0.0000 0.0000 16.9614 -1.9558 -38.1288 -8.9342 -16.7652 55.8624 -0.3970 -11.5247 12.9218 -0.0161 -0.8180 2.2482 4.5198 5.0516 4.1473 -5.1989 6.6393 3.8066 -8.0404 3.4388 2.8036 4.3767 20.9427 5.6316 -8.1619 28.0191 -4.9950 -3.4548 14.1620 -0.6723 -0.0000 0.0000 0.0000 -76.5784 -8.5884 65.0079 49.0100 -52.5883 -25.3856 -0.0000 0.0000 -13.4801 26.1399 -18.9421 -9.0515 -7.1250 0.0000 -0.0000 -1.3403 9.0626 1.1128 -0.0000 0.0000 0.0000 76.2911 -14.3656 36.4622 -25.8890 37.0989 -8.8206 0.0000 -0.0000 -2.4796 -4.0114 -29.2908 1.9650 7.1250 -0.0000 -0.0000 29.2739 -56.8230 -9.0118
8.4336 18.1791 -13.7674 -182.2550 -17.3812 -167.7660 0.0000 0.0000 0.0000 -22.1405 -1.8788 -16.9537 0.6358 5.1015 14.1983 -0.2503 -15.9733 19.9850 2.4816 9.8043 28.3453 0.0000 0.0000 0.0000 16.5629 -1.7116 -38.5368 -8.9784 -16.7938 56.0156 -0.3710 -11.8046 12.7622 -0.0196 -0.9030 2.4819 4.3451 4.9802 4.3937 -5.3114 6.5387 3.6777 -8.0931 3.3711 2.5056 4.3085 21.0443 5.6179 -8.0457 28.1581 -4.7554 -3.3905 14.2289 -0.6096 -0.0000 -0.0000 0.0000 -76.7701 -8.5981 65.1558 48.5548 -52.3957 -25.0245 -0.0000 0.0000 -13.5355 26.2348 -18.9812 -9.1066 -7.1250 0.0000 -0.0000 -1.2831 9.0041 1.0667 -0.0000 -0.0000 0.0000 76.5780 -15.1885 35.8711 -25.9151 37.1247 -8.8364 0.0000 -0.0000 -2.7719 -4.5405 -29.7901 2.2594 7.1250 -0.0000 -0.0000 29.1567 -57.3656 -9.3636
8.4383 18.1828 -13.6454 -182.5120 -17.6382 -167.6560 0.0000 0.0000 0.0000 -22.0072 -3.4060 -15.6983 0.6365 5.1042 14.2061 -0.3143 -15.5200 18.4333 2.4339 9.7168 28.0643 0.0000 0.0000 0.0000 16.1601 -1.4788 -39.0379 -9.0185 -16.8196 56.1540 -0.3447 -12.0990 12.6121 -0.0210 -0.9363 2.5737 4.1443 4.9327 4.4334 -5.3773 6.4660 3.6293 -8.0565 3.3241 2.4037 4.2076 21.1056 5.6991 -8.0791 28.2322 -4.7578 -3.3988 14.2702 -0.6273 -0.0000 0.0000 0.0000 -77.0610 -8.6918 65.2850 48.0522 -52.1791 -24.6270 -0.0000 0.0000 -13.4990 26.3044 -19.0675 -9.1733 -7.1250 0.0000 -0.0000 -1.2473 8.8986 1.0396 -0.0000 0.0000 0.0000 76.9248 -15.9332 34.8783 -26.0015 37.2102 -8.8885 0.0000 -0.0000 -2.7584 -4.9945 -30.3375 2.5274 7.1250 -0.0000 -0.0000 29.1601 -57.9363 -9.7753
